<svg width="60" height="60" viewBox="0 0 60 60" fill="none" xmlns="http://www.w3.org/2000/svg">
<g clip-path="url(#clip0_34_326)">
<path d="M29.9999 35.0393C32.9534 35.0393 35.3478 32.645 35.3478 29.6915C35.3478 26.738 32.9534 24.3437 29.9999 24.3437C27.0464 24.3437 24.6521 26.738 24.6521 29.6915C24.6521 32.645 27.0464 35.0393 29.9999 35.0393Z" fill="#61DAFB"/>
<path fill-rule="evenodd" clip-rule="evenodd" d="M4.43341 26.3949C3.14258 27.5602 2.6087 28.6764 2.6087 29.6915C2.6087 30.7066 3.14258 31.8228 4.43341 32.9881C5.7241 34.1532 7.665 35.2622 10.1744 36.2204C15.1842 38.1332 22.1932 39.3437 30 39.3437C37.8068 39.3437 44.8158 38.1332 49.8256 36.2204C52.335 35.2622 54.2759 34.1532 55.5666 32.9881C56.8574 31.8228 57.3913 30.7066 57.3913 29.6915C57.3913 28.6764 56.8574 27.5602 55.5666 26.3949C54.2759 25.2298 52.335 24.1207 49.8256 23.1626C44.8158 21.2498 37.8068 20.0393 30 20.0393C22.1932 20.0393 15.1842 21.2498 10.1744 23.1626C7.665 24.1207 5.7241 25.2298 4.43341 26.3949ZM9.24385 20.7255C14.6198 18.6729 21.9586 17.4306 30 17.4306C38.0414 17.4306 45.3802 18.6729 50.7562 20.7255C53.4397 21.7501 55.7012 23.002 57.3146 24.4585C58.928 25.9149 60 27.681 60 29.6915C60 31.7019 58.928 33.4681 57.3146 34.9245C55.7012 36.381 53.4397 37.6328 50.7562 38.6575C45.3802 40.7101 38.0414 41.9524 30 41.9524C21.9586 41.9524 14.6198 40.7101 9.24385 38.6575C6.56033 37.6328 4.29885 36.381 2.68538 34.9245C1.07205 33.4681 0 31.7019 0 29.6915C0 27.681 1.07205 25.9149 2.68538 24.4585C4.29885 23.002 6.56033 21.7501 9.24385 20.7255Z" fill="#61DAFB"/>
<path fill-rule="evenodd" clip-rule="evenodd" d="M20.0716 5.90188C18.4171 5.36662 17.1835 5.46236 16.3043 5.96992C15.4252 6.47748 14.7255 7.49793 14.3618 9.19845C13.9981 10.8988 14.0081 13.1342 14.433 15.7864C15.2813 21.0814 17.7376 27.7567 21.641 34.5176C25.5444 41.2784 30.0972 46.7432 34.2586 50.1254C36.3431 51.8195 38.274 52.9459 39.9284 53.4811C41.5829 54.0163 42.8165 53.9206 43.6957 53.413C44.5748 52.9055 45.2745 51.885 45.6382 50.1845C46.0019 48.4842 45.9919 46.2488 45.567 43.5965C44.7187 38.3015 42.2624 31.6263 38.359 24.8654C34.4556 18.1045 29.9028 12.6397 25.7414 9.25754C23.6569 7.56342 21.726 6.43709 20.0716 5.90188ZM27.3867 7.23314C31.8523 10.8626 36.5975 16.597 40.6182 23.561C44.6389 30.5251 47.2325 37.5018 48.1428 43.1839C48.5973 46.0202 48.6438 48.6046 48.1892 50.7302C47.7346 52.8555 46.7411 54.667 45 55.6722C43.2589 56.6775 41.1934 56.6321 39.1254 55.9631C37.0573 55.2941 34.8424 53.9615 32.6133 52.1498C28.1477 48.5204 23.4025 42.786 19.3818 35.8219C15.3611 28.8579 12.7675 21.8812 11.8572 16.1991C11.4027 13.3628 11.3562 10.7784 11.8108 8.65281C12.2654 6.52744 13.2589 4.71594 15 3.71072C16.7411 2.7055 18.8066 2.75085 20.8746 3.41984C22.9427 4.08889 25.1576 5.42145 27.3867 7.23314Z" fill="#61DAFB"/>
<path fill-rule="evenodd" clip-rule="evenodd" d="M45.6382 9.19845C45.2745 7.49793 44.5748 6.47748 43.6957 5.96992C42.8165 5.46236 41.5829 5.36662 39.9284 5.90188C38.274 6.43709 36.3431 7.56342 34.2586 9.25754C30.0972 12.6397 25.5444 18.1045 21.641 24.8654C17.7376 31.6263 15.2813 38.3015 14.433 43.5965C14.0081 46.2488 13.9981 48.4842 14.3618 50.1845C14.7255 51.885 15.4252 52.9055 16.3043 53.413C17.1835 53.9206 18.4171 54.0163 20.0716 53.4811C21.726 52.9459 23.6569 51.8195 25.7414 50.1254C29.9028 46.7432 34.4556 41.2784 38.359 34.5176C42.2624 27.7567 44.7187 21.0814 45.567 15.7864C45.9919 13.1342 46.0019 10.8988 45.6382 9.19845ZM48.1428 16.1991C47.2325 21.8812 44.6389 28.8579 40.6182 35.8219C36.5975 42.786 31.8523 48.5204 27.3867 52.1498C25.1576 53.9615 22.9427 55.2941 20.8746 55.9631C18.8066 56.6321 16.7411 56.6775 15 55.6722C13.2589 54.667 12.2654 52.8555 11.8108 50.7302C11.3562 48.6046 11.4027 46.0202 11.8572 43.1839C12.7675 37.5018 15.3611 30.5251 19.3818 23.561C23.4025 16.597 28.1477 10.8626 32.6133 7.23314C34.8424 5.42145 37.0573 4.08889 39.1254 3.41984C41.1934 2.75084 43.2589 2.7055 45 3.71072C46.7411 4.71594 47.7346 6.52744 48.1892 8.65281C48.6438 10.7784 48.5973 13.3628 48.1428 16.1991Z" fill="#61DAFB"/>
</g>
<defs>
<clipPath id="clip0_34_326">
<rect width="60" height="53.383" fill="white" transform="translate(0 3)"/>
</clipPath>
</defs>
</svg>
